<svg fill="none" viewBox="0 0 24 24"><path fill="url(#a)" fill-rule="evenodd" d="M5.169 14.536a.79.79 0 0 0 .155.042c.334.9.666 1.8.996 2.703.594 1.622 1.192 3.293 1.323 3.774.164.59.336.993.525 1.268.098.14.21.265.342.36.069.049.142.089.22.118.377.162.721.095.937.013.127-.05.247-.118.359-.203l.006-.003 3.334-2.378 3.852 3.377a.89.89 0 0 0 .184.126c.462.23.91.31 1.333.245.42-.067.754-.268 1.003-.496.285-.264.513-.6.665-.983l.01-.03.004-.01.002-.006v-.003h.002c.02-.059.036-.12.047-.18l3.515-20.282A1.16 1.16 0 0 0 24 1.791c0-.594-.196-1.16-.655-1.5-.394-.294-.831-.307-1.109-.283-.297.027-.573.11-.758.178-.104.038-.206.08-.307.127l-.013.007L1.439 9.17h-.002a2.892 2.892 0 0 0-.645.38c-.268.21-.885.784-.78 1.735.082.755.536 1.221.813 1.445.15.123.295.21.4.269.048.027.15.073.193.094l.012.004 3.739 1.44Zm16.68-12.353h-.003a.92.92 0 0 1-.03.015L2.072 11.059a.895.895 0 0 1-.03.014l-.013.004a1.294 1.294 0 0 0-.106.054c.033.021.067.04.102.058l3.707 1.428a.84.84 0 0 1 .188.102l12.243-8.2.011-.006c.048-.034.097-.064.147-.092.085-.05.22-.123.374-.177.106-.038.421-.145.76-.019.181.065.342.187.464.351.123.165.203.365.23.579.044.187.046.384.004.572-.083.372-.31.66-.516.882-.177.189-2.472 2.721-4.736 5.22l-3.083 3.402-.549.608 6.928 6.077a.562.562 0 0 0 .296.054.256.256 0 0 0 .138-.07.654.654 0 0 0 .122-.162l.002-.002 3.41-19.67a2 2 0 0 0-.316.115l-.002.002Zm-9.983 16.73L10.483 17.7l-.335 2.437 1.718-1.224Zm-2.65-3.618 1.374-1.519 3.082-3.404 1.148-1.266-7.692 5.152.042.111c.485 1.311.964 2.625 1.439 3.942l.334-2.43c.03-.226.126-.431.272-.586Z" clip-rule="evenodd"/><defs><linearGradient id="a" x1="0" x2="24" y1="12" y2="12" gradientUnits="userSpaceOnUse"><stop stop-color="#D78FE3"/><stop offset=".5" stop-color="#7779E7"/><stop offset="1" stop-color="#9BCFFC"/></linearGradient></defs></svg>